<svg width="20" height="20" viewBox="0 0 20 20" fill="none" xmlns="http://www.w3.org/2000/svg">
<path d="M13 12C14.3261 12 15.5979 12.5268 16.5355 13.4645C17.4732 14.4021 18 15.6739 18 17V18C18 18.5304 17.7893 19.0391 17.4142 19.4142C17.0391 19.7893 16.5304 20 16 20H2C1.46957 20 0.960859 19.7893 0.585786 19.4142C0.210714 19.0391 0 18.5304 0 18V17C0 15.6739 0.526784 14.4021 1.46447 13.4645C2.40215 12.5268 3.67392 12 5 12H13ZM17 6C17.2652 6 17.5196 6.10536 17.7071 6.29289C17.8946 6.48043 18 6.73478 18 7V8H19C19.2652 8 19.5196 8.10536 19.7071 8.29289C19.8946 8.48043 20 8.73478 20 9C20 9.26522 19.8946 9.51957 19.7071 9.70711C19.5196 9.89464 19.2652 10 19 10H18V11C18 11.2652 17.8946 11.5196 17.7071 11.7071C17.5196 11.8946 17.2652 12 17 12C16.7348 12 16.4804 11.8946 16.2929 11.7071C16.1054 11.5196 16 11.2652 16 11V10H15C14.7348 10 14.4804 9.89464 14.2929 9.70711C14.1054 9.51957 14 9.26522 14 9C14 8.73478 14.1054 8.48043 14.2929 8.29289C14.4804 8.10536 14.7348 8 15 8H16V7C16 6.73478 16.1054 6.48043 16.2929 6.29289C16.4804 6.10536 16.7348 6 17 6ZM9 0C10.3261 0 11.5979 0.526784 12.5355 1.46447C13.4732 2.40215 14 3.67392 14 5C14 6.32608 13.4732 7.59785 12.5355 8.53553C11.5979 9.47322 10.3261 10 9 10C7.67392 10 6.40215 9.47322 5.46447 8.53553C4.52678 7.59785 4 6.32608 4 5C4 3.67392 4.52678 2.40215 5.46447 1.46447C6.40215 0.526784 7.67392 0 9 0Z" fill="#353535"/>
<path d="M13 12C14.3261 12 15.5979 12.5268 16.5355 13.4645C17.4732 14.4021 18 15.6739 18 17V18C18 18.5304 17.7893 19.0391 17.4142 19.4142C17.0391 19.7893 16.5304 20 16 20H2C1.46957 20 0.960859 19.7893 0.585786 19.4142C0.210714 19.0391 0 18.5304 0 18V17C0 15.6739 0.526784 14.4021 1.46447 13.4645C2.40215 12.5268 3.67392 12 5 12H13ZM17 6C17.2652 6 17.5196 6.10536 17.7071 6.29289C17.8946 6.48043 18 6.73478 18 7V8H19C19.2652 8 19.5196 8.10536 19.7071 8.29289C19.8946 8.48043 20 8.73478 20 9C20 9.26522 19.8946 9.51957 19.7071 9.70711C19.5196 9.89464 19.2652 10 19 10H18V11C18 11.2652 17.8946 11.5196 17.7071 11.7071C17.5196 11.8946 17.2652 12 17 12C16.7348 12 16.4804 11.8946 16.2929 11.7071C16.1054 11.5196 16 11.2652 16 11V10H15C14.7348 10 14.4804 9.89464 14.2929 9.70711C14.1054 9.51957 14 9.26522 14 9C14 8.73478 14.1054 8.48043 14.2929 8.29289C14.4804 8.10536 14.7348 8 15 8H16V7C16 6.73478 16.1054 6.48043 16.2929 6.29289C16.4804 6.10536 16.7348 6 17 6ZM9 0C10.3261 0 11.5979 0.526784 12.5355 1.46447C13.4732 2.40215 14 3.67392 14 5C14 6.32608 13.4732 7.59785 12.5355 8.53553C11.5979 9.47322 10.3261 10 9 10C7.67392 10 6.40215 9.47322 5.46447 8.53553C4.52678 7.59785 4 6.32608 4 5C4 3.67392 4.52678 2.40215 5.46447 1.46447C6.40215 0.526784 7.67392 0 9 0Z" fill="black" fill-opacity="0.2"/>
</svg>
