<svg width="28" height="28" viewBox="0 0 28 28" fill="none" xmlns="http://www.w3.org/2000/svg">
<path d="M13.9985 2.80078C12.8846 2.80078 11.8163 3.24328 11.0287 4.03093C10.241 4.81859 9.79852 5.88687 9.79852 7.00078C9.79852 8.11469 10.241 9.18298 11.0287 9.97063C11.8163 10.7583 12.8846 11.2008 13.9985 11.2008C15.1124 11.2008 16.1807 10.7583 16.9684 9.97063C17.756 9.18298 18.1985 8.11469 18.1985 7.00078C18.1985 5.88687 17.756 4.81859 16.9684 4.03093C16.1807 3.24328 15.1124 2.80078 13.9985 2.80078ZM7.07272 13.9952C7.02512 14.2229 7.00132 14.4581 7.00132 14.7008V19.6008C7.00041 20.6172 7.22129 21.6215 7.64855 22.5438C8.07582 23.466 8.69917 24.2839 9.47512 24.9404L9.23572 25.0104C8.52532 25.2009 7.78434 25.2497 7.0551 25.1538C6.32585 25.058 5.62264 24.8194 4.98561 24.4518C4.34857 24.0841 3.79021 23.5946 3.3424 23.0111C2.89459 22.4276 2.56611 21.7616 2.37572 21.0512L1.46992 17.6702C1.39858 17.4038 1.38041 17.1259 1.41644 16.8525C1.45248 16.5791 1.54203 16.3154 1.67996 16.0766C1.81789 15.8378 2.00152 15.6285 2.22034 15.4607C2.43917 15.2928 2.68892 15.1697 2.95532 15.0984L7.07272 13.9952ZM23.0985 5.60078C22.1703 5.60078 21.28 5.96953 20.6236 6.62591C19.9673 7.28229 19.5985 8.17252 19.5985 9.10078C19.5985 10.029 19.9673 10.9193 20.6236 11.5757C21.28 12.232 22.1703 12.6008 23.0985 12.6008C24.0268 12.6008 24.917 12.232 25.5734 11.5757C26.2298 10.9193 26.5985 10.029 26.5985 9.10078C26.5985 8.17252 26.2298 7.28229 25.5734 6.62591C24.917 5.96953 24.0268 5.60078 23.0985 5.60078ZM4.89852 5.60078C3.97026 5.60078 3.08002 5.96953 2.42365 6.62591C1.76727 7.28229 1.39852 8.17252 1.39852 9.10078C1.39852 10.029 1.76727 10.9193 2.42365 11.5757C3.08002 12.232 3.97026 12.6008 4.89852 12.6008C5.82678 12.6008 6.71702 12.232 7.37339 11.5757C8.02977 10.9193 8.39852 10.029 8.39852 9.10078C8.39852 8.17252 8.02977 7.28229 7.37339 6.62591C6.71702 5.96953 5.82678 5.60078 4.89852 5.60078ZM10.4985 12.6008C9.94157 12.6008 9.40742 12.822 9.0136 13.2159C8.61977 13.6097 8.39852 14.1438 8.39852 14.7008V19.6008C8.39855 20.3656 8.55527 21.1224 8.85901 21.8244C9.16274 22.5263 9.60706 23.1586 10.1646 23.6823C10.722 24.2059 11.3809 24.6098 12.1005 24.8691C12.8201 25.1283 13.5852 25.2374 14.3485 25.1896C13.5232 24.1848 12.9656 22.9875 12.7278 21.7091C12.49 20.4308 12.5797 19.113 12.9885 17.8787C13.3973 16.6443 14.1119 15.5335 15.0657 14.6498C16.0196 13.7661 17.1816 13.1383 18.4435 12.8248C18.1504 12.6773 17.8267 12.6006 17.4985 12.6008H10.4985ZM26.5985 20.3008C26.5985 21.9716 25.9348 23.5741 24.7533 24.7556C23.5718 25.937 21.9694 26.6008 20.2985 26.6008C18.6277 26.6008 17.0252 25.937 15.8437 24.7556C14.6623 23.5741 13.9985 21.9716 13.9985 20.3008C13.9985 18.6299 14.6623 17.0275 15.8437 15.846C17.0252 14.6645 18.6277 14.0008 20.2985 14.0008C21.9694 14.0008 23.5718 14.6645 24.7533 15.846C25.9348 17.0275 26.5985 18.6299 26.5985 20.3008ZM20.9985 17.5008C20.9985 17.3151 20.9248 17.1371 20.7935 17.0058C20.6622 16.8745 20.4842 16.8008 20.2985 16.8008C20.1129 16.8008 19.9348 16.8745 19.8035 17.0058C19.6723 17.1371 19.5985 17.3151 19.5985 17.5008V19.6008H17.4985C17.3129 19.6008 17.1348 19.6745 17.0035 19.8058C16.8723 19.9371 16.7985 20.1151 16.7985 20.3008C16.7985 20.4864 16.8723 20.6645 17.0035 20.7958C17.1348 20.927 17.3129 21.0008 17.4985 21.0008H19.5985V23.1008C19.5985 23.2864 19.6723 23.4645 19.8035 23.5958C19.9348 23.727 20.1129 23.8008 20.2985 23.8008C20.4842 23.8008 20.6622 23.727 20.7935 23.5958C20.9248 23.4645 20.9985 23.2864 20.9985 23.1008V21.0008H23.0985C23.2842 21.0008 23.4622 20.927 23.5935 20.7958C23.7248 20.6645 23.7985 20.4864 23.7985 20.3008C23.7985 20.1151 23.7248 19.9371 23.5935 19.8058C23.4622 19.6745 23.2842 19.6008 23.0985 19.6008H20.9985V17.5008Z" fill="#434343"/>
</svg>
