<svg width="20" height="20" viewBox="0 0 20 20" fill="none" xmlns="http://www.w3.org/2000/svg">
<path fill-rule="evenodd" clip-rule="evenodd" d="M5.25578 3.23385C8.07662 2.92205 10.9233 2.92205 13.7442 3.23385C15.306 3.4086 16.566 4.63647 16.7493 6.20111C17.0836 9.05732 17.0836 11.9427 16.7493 14.7989C16.566 16.3635 15.306 17.5914 13.7442 17.7662C10.9233 18.0779 8.07662 18.0779 5.25578 17.7662C3.69395 17.5914 2.43391 16.3635 2.25065 14.7989C1.91645 11.943 1.91645 9.05793 2.25065 6.20202C2.34334 5.44188 2.69046 4.73527 3.23573 4.1967C3.78101 3.65813 4.49249 3.31917 5.25486 3.23476M9.49997 5.95535C9.68133 5.95535 9.85526 6.02728 9.9835 6.1553C10.1117 6.28332 10.1838 6.45696 10.1838 6.63801V9.81735H13.3685C13.5499 9.81735 13.7238 9.88927 13.8521 10.0173C13.9803 10.1453 14.0523 10.3189 14.0523 10.5C14.0523 10.6811 13.9803 10.8547 13.8521 10.9827C13.7238 11.1107 13.5499 11.1827 13.3685 11.1827H10.1838V14.362C10.1838 14.543 10.1117 14.7167 9.9835 14.8447C9.85526 14.9727 9.68133 15.0446 9.49997 15.0446C9.31862 15.0446 9.14469 14.9727 9.01645 14.8447C8.88821 14.7167 8.81616 14.543 8.81616 14.362V11.1827H5.63142C5.45006 11.1827 5.27613 11.1107 5.14789 10.9827C5.01965 10.8547 4.94761 10.6811 4.94761 10.5C4.94761 10.3189 5.01965 10.1453 5.14789 10.0173C5.27613 9.88927 5.45006 9.81735 5.63142 9.81735H8.81616V6.63801C8.81616 6.45696 8.88821 6.28332 9.01645 6.1553C9.14469 6.02728 9.31862 5.95535 9.49997 5.95535Z" fill="#434343"/>
</svg>
