<svg width="20" height="20" viewBox="0 0 20 20" fill="none" xmlns="http://www.w3.org/2000/svg">
<path d="M14 3C14.7956 3 15.5587 3.33271 16.1213 3.92495C16.6839 4.51718 17 5.32042 17 6.15797V12.4739C17 13.3115 16.6839 14.1147 16.1213 14.7069C15.5587 15.2992 14.7956 15.6319 14 15.6319H10.457L6.8855 17.8875C6.77794 17.9554 6.65591 17.9939 6.53058 17.9993C6.40525 18.0048 6.28062 17.9771 6.16809 17.9187C6.05557 17.8603 5.95875 17.7732 5.88649 17.6653C5.81424 17.5573 5.76886 17.432 5.7545 17.3009L5.75 17.2109V15.6319H5C4.23032 15.6319 3.49008 15.3205 2.93239 14.7621C2.3747 14.2037 2.04223 13.441 2.00375 12.6318L2 12.4739V6.15797C2 5.32042 2.31607 4.51718 2.87868 3.92495C3.44129 3.33271 4.20435 3 5 3H14ZM11 10.1054H6.5C6.30109 10.1054 6.11032 10.1886 5.96967 10.3367C5.82902 10.4847 5.75 10.6855 5.75 10.8949C5.75 11.1043 5.82902 11.3051 5.96967 11.4532C6.11032 11.6012 6.30109 11.6844 6.5 11.6844H11C11.1989 11.6844 11.3897 11.6012 11.5303 11.4532C11.671 11.3051 11.75 11.1043 11.75 10.8949C11.75 10.6855 11.671 10.4847 11.5303 10.3367C11.3897 10.1886 11.1989 10.1054 11 10.1054ZM12.5 6.94746H6.5C6.30109 6.94746 6.11032 7.03064 5.96967 7.1787C5.82902 7.32676 5.75 7.52757 5.75 7.73695C5.75 7.94634 5.82902 8.14715 5.96967 8.29521C6.11032 8.44327 6.30109 8.52645 6.5 8.52645H12.5C12.6989 8.52645 12.8897 8.44327 13.0303 8.29521C13.171 8.14715 13.25 7.94634 13.25 7.73695C13.25 7.52757 13.171 7.32676 13.0303 7.1787C12.8897 7.03064 12.6989 6.94746 12.5 6.94746Z" fill="#434343"/>
</svg>
