<svg width="20" height="20" viewBox="0 0 20 20" fill="none" xmlns="http://www.w3.org/2000/svg">
<path fill-rule="evenodd" clip-rule="evenodd" d="M2 10.5C2 6.35775 5.35775 3 9.5 3C13.6423 3 17 6.35775 17 10.5C17 14.6423 13.6423 18 9.5 18C5.35775 18 2 14.6423 2 10.5ZM11.75 8.25L8.98025 8.80425C8.69008 8.8624 8.4236 9.00509 8.21434 9.21434C8.00509 9.4236 7.8624 9.69008 7.80425 9.98025L7.25 12.75L10.0197 12.1957C10.3101 12.1377 10.5767 11.9951 10.7861 11.7858C10.9955 11.5766 11.1383 11.31 11.1965 11.0197L11.75 8.25Z" fill="#434343"/>
</svg>
