<svg width="18" height="18" viewBox="0 0 18 18" fill="none" xmlns="http://www.w3.org/2000/svg">
<path d="M2 18C1.45 18 0.979333 17.8043 0.588 17.413C0.196667 17.0217 0.000666667 16.5507 0 16V2C0 1.45 0.196 0.979333 0.588 0.588C0.98 0.196667 1.45067 0.000666667 2 0H16C16.55 0 17.021 0.196 17.413 0.588C17.805 0.98 18.0007 1.45067 18 2V16C18 16.55 17.8043 17.021 17.413 17.413C17.0217 17.805 16.5507 18.0007 16 18H2ZM9 13C9.53333 13 10.025 12.8623 10.475 12.587C10.925 12.3117 11.2917 11.9493 11.575 11.5C11.675 11.35 11.8 11.229 11.95 11.137C12.1 11.045 12.2667 10.9993 12.45 11H16V2H2V11H5.55C5.73333 11 5.9 11.046 6.05 11.138C6.2 11.23 6.325 11.3507 6.425 11.5C6.70833 11.95 7.075 12.3127 7.525 12.588C7.975 12.8633 8.46667 13.0007 9 13Z" fill="#434343"/>
</svg>
