<svg width="71" height="36" viewBox="0 0 71 36" fill="none" xmlns="http://www.w3.org/2000/svg">
<rect width="70.363" height="35.7778" rx="5.96296" fill="#595959"/>
<path d="M35.1826 7.54883C36.9594 7.54899 38.207 8.91697 38.207 10.7637V17.8906C38.207 18.0483 38.1937 18.2022 38.1758 18.3525L40.0215 20.1982C40.3329 19.5082 40.5029 18.726 40.5029 17.8809V15.5342C40.5031 15.1455 40.8423 14.8058 41.2314 14.8057C41.6212 14.8057 41.9707 15.1459 41.9707 15.5352V17.8809C41.9707 19.1629 41.6724 20.3245 41.1309 21.3076L45.3926 25.5693L44.127 26.835L40.0361 22.7441C39.0002 23.7486 37.5947 24.3928 35.9307 24.5391V26.7256H39.8438C40.2431 26.7256 40.5926 27.0845 40.5928 27.4834C40.5928 27.8829 40.2433 28.2324 39.8438 28.2324H30.5205C30.121 28.2324 29.7715 27.8829 29.7715 27.4834C29.7717 27.0845 30.1211 26.7256 30.5205 26.7256H34.4238V24.5391C30.8001 24.2196 28.3936 21.5344 28.3936 17.8809V15.5342C28.3937 15.1454 28.7436 14.8057 29.1328 14.8057C29.5221 14.8057 29.8613 15.1459 29.8613 15.5352V17.8809C29.8613 20.9254 32.058 23.1611 35.1826 23.1611C36.7282 23.1611 38.0455 22.613 38.9834 21.6914L37.4141 20.1221C36.8775 20.7331 36.1025 21.1054 35.1826 21.1055C33.4057 21.1055 32.1572 19.7276 32.1572 17.8906V14.8643L26.2383 8.94531L27.5039 7.68066L32.1572 12.334V10.7637C32.1572 8.91643 33.4057 7.54883 35.1826 7.54883Z" fill="white"/>
</svg>
