<svg width="52" height="52" viewBox="0 0 52 52" fill="none" xmlns="http://www.w3.org/2000/svg">
<rect width="52" height="52" rx="26" fill="#FDFDFD"/>
<path d="M24.5 33C29.1945 33 33 29.1945 33 24.5C33 19.8055 29.1945 16 24.5 16C19.8055 16 16 19.8055 16 24.5C16 29.1945 19.8055 33 24.5 33Z" stroke="#5A47EE" stroke-width="2" stroke-linejoin="round"/>
<path d="M27.3289 21.1715C26.9578 20.7996 26.5168 20.5047 26.0315 20.3037C25.5461 20.1026 25.0258 19.9994 24.5004 20C23.975 19.9994 23.4547 20.1026 22.9693 20.3037C22.4839 20.5047 22.043 20.7996 21.6719 21.1715M30.6114 30.611L34.8539 34.8535" stroke="#5A47EE" stroke-width="2" stroke-linecap="round" stroke-linejoin="round"/>
<path d="M24.5 33C29.1945 33 33 29.1945 33 24.5C33 19.8055 29.1945 16 24.5 16C19.8055 16 16 19.8055 16 24.5C16 29.1945 19.8055 33 24.5 33Z" stroke="#5A47EE" stroke-width="2" stroke-linejoin="round"/>
<path d="M27.3289 21.1715C26.9578 20.7996 26.5168 20.5047 26.0315 20.3037C25.5461 20.1026 25.0258 19.9994 24.5004 20C23.975 19.9994 23.4547 20.1026 22.9693 20.3037C22.4839 20.5047 22.043 20.7996 21.6719 21.1715M30.6114 30.611L34.8539 34.8535" stroke="#5A47EE" stroke-width="2" stroke-linecap="round" stroke-linejoin="round"/>
</svg>
