<svg width="18" height="18" viewBox="0 0 18 18" fill="none" xmlns="http://www.w3.org/2000/svg">
<path fill-rule="evenodd" clip-rule="evenodd" d="M7.3418 0.000204036H10.1293C10.5493 -0.00604596 10.9605 0.131454 11.2918 0.390204C11.6255 0.652704 11.8568 1.02145 11.9418 1.43645L12.1855 2.6052C12.2914 2.66187 12.3955 2.7202 12.498 2.7802L13.6793 2.3927C13.9223 2.31427 14.1789 2.287 14.433 2.3126C14.6871 2.3382 14.9331 2.41612 15.1555 2.54145C15.4305 2.69645 15.6618 2.91895 15.823 3.19145L17.2293 5.51145C17.4566 5.87095 17.5463 6.30052 17.4817 6.72093C17.4172 7.14134 17.2028 7.52423 16.878 7.79895H16.8755L15.948 8.5902V8.9127L16.8643 9.72895C17.1827 9.9992 17.3948 10.3737 17.4628 10.7858C17.5308 11.1979 17.4503 11.6207 17.2355 11.979L15.873 14.304V14.3065C15.7109 14.5778 15.4811 14.8023 15.2061 14.9581C14.9311 15.1139 14.6204 15.1956 14.3043 15.1952C14.1088 15.1963 13.9144 15.1667 13.728 15.1077L13.7218 15.1052L12.5505 14.719C12.4464 14.7806 12.3405 14.8394 12.233 14.8952L11.9905 16.0627C11.9049 16.4779 11.6746 16.8492 11.3405 17.1102C11.0085 17.37 10.5971 17.5077 10.1755 17.5002H7.36555C6.94482 17.5071 6.53446 17.3695 6.20305 17.1102C5.86927 16.8495 5.63892 16.4787 5.55305 16.064L5.3093 14.894C5.20375 14.8381 5.09956 14.7798 4.9968 14.719L3.81555 15.1065C3.57254 15.1849 3.31592 15.2122 3.06186 15.1866C2.80779 15.161 2.56178 15.083 2.3393 14.9577C2.06392 14.8041 1.83374 14.5808 1.6718 14.3102L0.264298 11.9852C0.0460553 11.633 -0.041117 11.2151 0.0180891 10.805C0.0772952 10.3949 0.279094 10.0188 0.588048 9.7427L1.5218 8.5652L0.630547 7.77145C0.311691 7.50092 0.0994091 7.12583 0.0316294 6.71319C-0.0361503 6.30056 0.0449878 5.87727 0.260548 5.51895L0.263048 5.51645L1.6718 3.19145C1.83158 2.92269 2.05817 2.69983 2.32956 2.54454C2.60094 2.38924 2.90788 2.30679 3.22055 2.3052C3.40888 2.2952 3.59471 2.31312 3.77805 2.35895L3.80555 2.36645L4.9743 2.7777C5.0768 2.7177 5.18096 2.6602 5.2868 2.6052L5.5293 1.4377C5.61489 1.02251 5.84527 0.651246 6.1793 0.390204C6.5093 0.131454 6.9218 -0.00604596 7.3418 0.000204036ZM8.75055 6.2502C8.08751 6.2502 7.45162 6.5136 6.98278 6.98244C6.51394 7.45128 6.25055 8.08716 6.25055 8.7502C6.25055 9.41325 6.51394 10.0491 6.98278 10.518C7.45162 10.9868 8.08751 11.2502 8.75055 11.2502C9.41359 11.2502 10.0495 10.9868 10.5183 10.518C10.9872 10.0491 11.2505 9.41325 11.2505 8.7502C11.2505 8.08716 10.9872 7.45128 10.5183 6.98244C10.0495 6.5136 9.41359 6.2502 8.75055 6.2502ZM5.00055 8.7502C5.00055 7.75564 5.39564 6.80182 6.0989 6.09855C6.80216 5.39529 7.75599 5.0002 8.75055 5.0002C9.74511 5.0002 10.6989 5.39529 11.4022 6.09855C12.1055 6.80182 12.5005 7.75564 12.5005 8.7502C12.5005 9.74477 12.1055 10.6986 11.4022 11.4019C10.6989 12.1051 9.74511 12.5002 8.75055 12.5002C7.75599 12.5002 6.80216 12.1051 6.0989 11.4019C5.39564 10.6986 5.00055 9.74477 5.00055 8.7502Z" fill="#434343"/>
</svg>
