<svg width="30" height="24" viewBox="0 0 30 24" fill="none" xmlns="http://www.w3.org/2000/svg">
<path d="M9 12C11.9016 12 14.25 9.65156 14.25 6.75C14.25 3.84844 11.9016 1.5 9 1.5C6.09844 1.5 3.75 3.84844 3.75 6.75C3.75 9.65156 6.09844 12 9 12ZM12.6 13.5H12.2109C11.2359 13.9688 10.1531 14.25 9 14.25C7.84688 14.25 6.76875 13.9688 5.78906 13.5H5.4C2.41875 13.5 0 15.9188 0 18.9V20.25C0 21.4922 1.00781 22.5 2.25 22.5H15.75C16.9922 22.5 18 21.4922 18 20.25V18.9C18 15.9188 15.5812 13.5 12.6 13.5ZM22.5 12C24.9844 12 27 9.98438 27 7.5C27 5.01562 24.9844 3 22.5 3C20.0156 3 18 5.01562 18 7.5C18 9.98438 20.0156 12 22.5 12ZM24.75 13.5H24.5719C23.9203 13.725 23.2313 13.875 22.5 13.875C21.7687 13.875 21.0797 13.725 20.4281 13.5H20.25C19.2938 13.5 18.4125 13.7766 17.6391 14.2219C18.7828 15.4547 19.5 17.0906 19.5 18.9V20.7C19.5 20.8031 19.4766 20.9016 19.4719 21H27.75C28.9922 21 30 19.9922 30 18.75C30 15.8484 27.6516 13.5 24.75 13.5Z" fill="#434343"/>
</svg>
