<svg width="24" height="24" viewBox="0 0 24 24" fill="none" xmlns="http://www.w3.org/2000/svg">
<path d="M12.306 14.0162C13.0447 14.0919 13.7291 14.439 14.2268 14.9902C14.7244 15.5414 14.9999 16.2576 15 17.0002C15 18.5422 14.06 19.8182 12.796 20.6602C11.526 21.5082 9.826 22.0002 8 22.0002C6.174 22.0002 4.474 21.5082 3.204 20.6602C1.938 19.8202 1 18.5422 1 17.0002C1 16.2045 1.31607 15.4415 1.87868 14.8788C2.44129 14.3162 3.20435 14.0002 4 14.0002H12L12.306 14.0162ZM20.006 14.0002C20.8016 14.0002 21.5647 14.3162 22.1273 14.8788C22.6899 15.4415 23.006 16.2045 23.006 17.0002C23.006 18.3902 22.142 19.4222 21.04 20.0562C19.944 20.6862 18.51 21.0002 17.006 21.0002C16.4993 20.9988 16.0053 20.9615 15.524 20.8882C16.39 19.8642 17.002 18.5562 17.002 17.0002C16.9997 15.9174 16.646 14.8646 15.994 14.0002H20.006ZM8.004 2.99217C8.6036 2.9798 9.19963 3.08726 9.75716 3.30823C10.3147 3.5292 10.8225 3.85924 11.2508 4.27901C11.6791 4.69878 12.0194 5.19983 12.2515 5.75279C12.4837 6.30574 12.6032 6.89949 12.6029 7.49921C12.6026 8.09893 12.4827 8.69257 12.25 9.24532C12.0173 9.79808 11.6767 10.2988 11.248 10.7182C10.8193 11.1376 10.3112 11.4672 9.75344 11.6877C9.19571 11.9081 8.59958 12.0151 8 12.0022C6.82164 11.9773 5.69991 11.4918 4.87532 10.6497C4.05073 9.8075 3.58893 8.67579 3.58893 7.49717C3.58893 6.31854 4.05073 5.18683 4.87532 4.34469C5.69991 3.50254 6.82164 3.017 8 2.99217M17.5 4.99417C17.9596 4.99417 18.4148 5.0847 18.8394 5.26059C19.264 5.43648 19.6499 5.69429 19.9749 6.0193C20.2999 6.3443 20.5577 6.73014 20.7336 7.15478C20.9095 7.57942 21 8.03454 21 8.49417C21 8.9538 20.9095 9.40892 20.7336 9.83356C20.5577 10.2582 20.2999 10.644 19.9749 10.969C19.6499 11.294 19.264 11.5519 18.8394 11.7277C18.4148 11.9036 17.9596 11.9942 17.5 11.9942C16.5717 11.9942 15.6815 11.6254 15.0251 10.969C14.3687 10.3127 14 9.42243 14 8.49417C14 7.56591 14.3687 6.67567 15.0251 6.0193C15.6815 5.36292 16.5717 4.99417 17.5 4.99417Z" fill="#282828"/>
</svg>
