<svg width="20" height="20" viewBox="0 0 20 20" fill="none" xmlns="http://www.w3.org/2000/svg">
<path fill-rule="evenodd" clip-rule="evenodd" d="M8.3896 0.000233177H11.5749C12.0549 -0.00690948 12.5248 0.150229 12.9033 0.445935C13.2847 0.745926 13.549 1.16734 13.6461 1.64162L13.9246 2.97729C14.0456 3.04205 14.1646 3.10872 14.2817 3.17729L15.6316 2.73444C15.9093 2.64481 16.2025 2.61364 16.4928 2.6429C16.7831 2.67215 17.0643 2.7612 17.3185 2.90444C17.6328 3.08157 17.897 3.33585 18.0813 3.64727L19.6882 6.29863C19.948 6.70946 20.0504 7.20039 19.9767 7.68085C19.9029 8.1613 19.6579 8.59887 19.2868 8.91284H19.284L18.2241 9.8171V10.1857L19.2711 11.1185C19.635 11.4273 19.8774 11.8554 19.9551 12.3263C20.0328 12.7972 19.9407 13.2805 19.6954 13.6898L18.1384 16.3469V16.3498C17.9531 16.6598 17.6905 16.9164 17.3763 17.0945C17.062 17.2725 16.7069 17.3659 16.3458 17.3655C16.1224 17.3667 15.9002 17.3329 15.6873 17.2655L15.6801 17.2626L14.3417 16.8212C14.2227 16.8917 14.1018 16.9588 13.9789 17.0226L13.7018 18.3569C13.604 18.8314 13.3407 19.2556 12.959 19.554C12.5796 19.8509 12.1095 20.0083 11.6278 19.9997H8.41674C7.93597 20.0076 7.46704 19.8503 7.08833 19.554C6.70692 19.256 6.44369 18.8323 6.34556 18.3583L6.06703 17.0212C5.94642 16.9574 5.82735 16.8907 5.70993 16.8212L4.36009 17.264C4.0824 17.3537 3.78916 17.3848 3.49884 17.3556C3.20851 17.3263 2.92738 17.2373 2.67316 17.094C2.35848 16.9185 2.09545 16.6633 1.91039 16.3541L0.302017 13.697C0.0526282 13.2945 -0.0469851 12.8169 0.0206708 12.3483C0.0883266 11.8796 0.318926 11.4497 0.671972 11.1342L1.73898 9.78853L0.720538 8.88141C0.356174 8.57224 0.113596 8.14357 0.0361434 7.67201C-0.0413096 7.20044 0.0514083 6.71669 0.297732 6.3072L0.300589 6.30434L1.91039 3.64727C2.09298 3.34012 2.35191 3.08543 2.66202 2.90796C2.97214 2.73049 3.32288 2.63626 3.68018 2.63444C3.89539 2.62302 4.10774 2.64349 4.31724 2.69587L4.34866 2.70444L5.68422 3.17443C5.80134 3.10586 5.92038 3.04015 6.04131 2.97729L6.31842 1.64304C6.41624 1.16855 6.67949 0.74426 7.06119 0.445935C7.43829 0.150229 7.90966 -0.00690948 8.3896 0.000233177ZM9.9994 7.14289C9.24173 7.14289 8.5151 7.4439 7.97934 7.9797C7.44359 8.5155 7.14261 9.24221 7.14261 9.99995C7.14261 10.7577 7.44359 11.4844 7.97934 12.0202C8.5151 12.556 9.24173 12.857 9.9994 12.857C10.7571 12.857 11.4837 12.556 12.0195 12.0202C12.5552 11.4844 12.8562 10.7577 12.8562 9.99995C12.8562 9.24221 12.5552 8.5155 12.0195 7.9797C11.4837 7.4439 10.7571 7.14289 9.9994 7.14289ZM5.71421 9.99995C5.71421 8.86334 6.16569 7.77328 6.96932 6.96958C7.77294 6.16587 8.8629 5.71436 9.9994 5.71436C11.1359 5.71436 12.2259 6.16587 13.0295 6.96958C13.8331 7.77328 14.2846 8.86334 14.2846 9.99995C14.2846 11.1366 13.8331 12.2266 13.0295 13.0303C12.2259 13.834 11.1359 14.2855 9.9994 14.2855C8.8629 14.2855 7.77294 13.834 6.96932 13.0303C6.16569 12.2266 5.71421 11.1366 5.71421 9.99995Z" fill="#434343"/>
</svg>
